<svg width="25" height="22" viewBox="0 0 25 22" fill="none" xmlns="http://www.w3.org/2000/svg">
<g clip-path="url(#clip0_1_231)">
<path fill-rule="evenodd" clip-rule="evenodd" d="M24.5746 3.55575C24.5746 1.85936 23.1994 0.484166 21.503 0.484166H3.73699C2.17833 0.411126 0.814447 1.52285 0.571733 3.06424C0.32902 4.60563 1.28525 6.08269 2.79095 6.49218V17.5499C2.79093 19.825 4.63172 21.6713 6.90686 21.6781H18.3086C19.4056 21.6813 20.4588 21.2478 21.2356 20.4733C22.0124 19.6988 22.449 18.6469 22.449 17.5499V6.49218C23.7237 6.0837 24.5847 4.89413 24.5746 3.55575ZM18.3208 19.8228H6.91917C6.31632 19.8228 5.73818 19.5834 5.31192 19.1571C4.88565 18.7308 4.64618 18.1527 4.64618 17.5499V6.62731H20.6184V17.5499C20.6185 18.157 20.3756 18.7389 19.944 19.1658C19.5124 19.5928 18.928 19.8294 18.3208 19.8228ZM3.737 4.78438H21.503C22.1815 4.78438 22.7317 4.23431 22.7317 3.55575C22.7317 2.87719 22.1815 2.32711 21.503 2.32711H3.737C3.05844 2.32711 2.50836 2.87719 2.50836 3.55575C2.50836 4.23431 3.05844 4.78438 3.737 4.78438Z" fill="#C12F51"/>
<path d="M15.3844 9.85866H9.85559C9.34668 9.85866 8.93411 10.2712 8.93411 10.7801C8.93411 11.289 9.34668 11.7016 9.85559 11.7016H15.3844C15.8933 11.7016 16.3059 11.289 16.3059 10.7801C16.3059 10.2712 15.8933 9.85866 15.3844 9.85866Z" fill="#C12F51"/>
</g>
<defs>
<clipPath id="clip0_1_231">
<rect width="25" height="21.7949" fill="white"/>
</clipPath>
</defs>
</svg>
