<svg width="20" height="20" viewBox="0 0 20 20" fill="none" xmlns="http://www.w3.org/2000/svg">
<rect width="20" height="20" fill="#938286"/>
<path d="M6.125 7H14.875C15.0408 7 15.1997 6.93415 15.3169 6.81694C15.4342 6.69973 15.5 6.54076 15.5 6.375C15.5 6.20924 15.4342 6.05027 15.3169 5.93306C15.1997 5.81585 15.0408 5.75 14.875 5.75H6.125C5.95924 5.75 5.80027 5.81585 5.68306 5.93306C5.56585 6.05027 5.5 6.20924 5.5 6.375C5.5 6.54076 5.56585 6.69973 5.68306 6.81694C5.80027 6.93415 5.95924 7 6.125 7ZM16.125 8.875H4.875C4.70924 8.875 4.55027 8.94085 4.43306 9.05806C4.31585 9.17527 4.25 9.33424 4.25 9.5C4.25 9.66576 4.31585 9.82473 4.43306 9.94194C4.55027 10.0592 4.70924 10.125 4.875 10.125H16.125C16.2908 10.125 16.4497 10.0592 16.5669 9.94194C16.6842 9.82473 16.75 9.66576 16.75 9.5C16.75 9.33424 16.6842 9.17527 16.5669 9.05806C16.4497 8.94085 16.2908 8.875 16.125 8.875ZM14.875 12H6.125C5.95924 12 5.80027 12.0658 5.68306 12.1831C5.56585 12.3003 5.5 12.4592 5.5 12.625C5.5 12.7908 5.56585 12.9497 5.68306 13.0669C5.80027 13.1842 5.95924 13.25 6.125 13.25H14.875C15.0408 13.25 15.1997 13.1842 15.3169 13.0669C15.4342 12.9497 15.5 12.7908 15.5 12.625C15.5 12.4592 15.4342 12.3003 15.3169 12.1831C15.1997 12.0658 15.0408 12 14.875 12Z" fill="black"/>
</svg>
