<svg width="27" height="33" viewBox="0 0 27 33" fill="none" xmlns="http://www.w3.org/2000/svg">
<g filter="url(#filter0_d_1_211)">
<path d="M14.5315 23.7075C16.8088 21.7339 22.0661 16.5548 22.0661 10.7983C22.0661 6.06734 18.231 2.23214 13.5 2.23214C8.76906 2.23214 4.93387 6.06734 4.93387 10.7983C4.93387 16.5548 10.1912 21.7339 12.4686 23.7075C13.0671 24.2261 13.933 24.2261 14.5315 23.7075Z" fill="#938286" stroke="#35363F" stroke-width="1.5" stroke-linecap="round" stroke-linejoin="round"/>
<path d="M13.5 13.8038C15.4377 13.8038 17.0085 12.233 17.0085 10.2953C17.0085 8.35757 15.4377 6.78675 13.5 6.78675C11.5623 6.78675 9.99146 8.35757 9.99146 10.2953C9.99146 12.233 11.5623 13.8038 13.5 13.8038Z" fill="white" stroke="#35363F" stroke-width="1.5" stroke-linecap="round" stroke-linejoin="round"/>
</g>
<defs>
<filter id="filter0_d_1_211" x="-3" y="0" width="33" height="34.7857" filterUnits="userSpaceOnUse" color-interpolation-filters="sRGB">
<feFlood flood-opacity="0" result="BackgroundImageFix"/>
<feColorMatrix in="SourceAlpha" type="matrix" values="0 0 0 0 0 0 0 0 0 0 0 0 0 0 0 0 0 0 127 0" result="hardAlpha"/>
<feOffset dy="4"/>
<feGaussianBlur stdDeviation="2"/>
<feComposite in2="hardAlpha" operator="out"/>
<feColorMatrix type="matrix" values="0 0 0 0 0 0 0 0 0 0 0 0 0 0 0 0 0 0 0.25 0"/>
<feBlend mode="normal" in2="BackgroundImageFix" result="effect1_dropShadow_1_211"/>
<feBlend mode="normal" in="SourceGraphic" in2="effect1_dropShadow_1_211" result="shape"/>
</filter>
</defs>
</svg>
